<svg width="238" height="256" viewBox="0 0 238 256" fill="none" xmlns="http://www.w3.org/2000/svg">
  <g clip-path="url(#clip0)">
    <g clip-path="url(#clip1)">
      <path
        d="M124.464 0.707184C76.2343 0.707184 35.2177 15.8409 18.9525 37.0564L93.2066 111.31C103.249 112.866 113.432 113.856 124.464 113.856C186.979 113.856 237.613 88.5392 237.613 57.2818C237.613 26.0243 186.979 0.707184 124.464 0.707184Z"
        fill="#3F51B5"
      />
      <path
        d="M237.613 85.5691C237.613 116.827 186.979 142.144 124.464 142.144C115.129 142.144 106.077 141.436 97.4497 140.305L62.5149 175.24C80.3359 181.039 101.551 184.575 124.464 184.575C186.979 184.575 237.613 159.257 237.613 128"
        fill="#3F51B5"
      />
      <path
        d="M237.613 156.287C237.613 187.545 186.979 212.862 124.464 212.862C92.2166 212.862 63.2221 205.79 42.5724 195.182L18.8111 218.944C35.0762 240.159 76.2343 255.293 124.464 255.293C186.979 255.293 237.613 229.976 237.613 198.718"
        fill="#3F51B5"
      />
      <path
        d="M20.084 57.989L0 78.0729L49.5028 127.576L0 177.078L20.084 197.162L89.6707 127.576"
        fill="#3F51B5"
      />
    </g>
  </g>
  <defs>
    <clipPath id="clip0">
      <rect width="237.613" height="256" fill="white" />
    </clipPath>
    <clipPath id="clip1">
      <rect width="237.613" height="256" fill="white" />
    </clipPath>
  </defs>
</svg>
