<svg
  width="600"
  height="100"
  viewBox="0 0 600 100"
  fill="none"
  xmlns="http://www.w3.org/2000/svg"
>
  <path
    d="M18.8 0C13.8 0 9 2 5.5 5.5 2 9 0 13.8 0 18.8L0 81.3C0 86.2 2 91 5.5 94.5 9 98 13.8 100 18.8 100H81.3C86.2 100 91 98 94.5 94.5 98 91 100 86.2 100 81.3V18.8C100 13.8 98 9 94.5 5.5 91 2 86.2 0 81.3 0L18.8 0ZM25 34.4C22.5 34.4 20.1 33.4 18.4 31.6 16.6 29.9 15.6 27.5 15.6 25 15.6 22.5 16.6 20.1 18.4 18.4 20.1 16.6 22.5 15.6 25 15.6 27.5 15.6 29.9 16.6 31.6 18.4 33.4 20.1 34.4 22.5 34.4 25 34.4 27.5 33.4 29.9 31.6 31.6 29.9 33.4 27.5 34.4 25 34.4ZM75 34.4C72.5 34.4 70.1 33.4 68.4 31.6 66.6 29.9 65.6 27.5 65.6 25 65.6 22.5 66.6 20.1 68.4 18.4 70.1 16.6 72.5 15.6 75 15.6 77.5 15.6 79.9 16.6 81.6 18.4 83.4 20.1 84.4 22.5 84.4 25 84.4 27.5 83.4 29.9 81.6 31.6 79.9 33.4 77.5 34.4 75 34.4ZM84.4 75C84.4 77.5 83.4 79.9 81.6 81.6 79.9 83.4 77.5 84.4 75 84.4 72.5 84.4 70.1 83.4 68.4 81.6 66.6 79.9 65.6 77.5 65.6 75 65.6 72.5 66.6 70.1 68.4 68.4 70.1 66.6 72.5 65.6 75 65.6 77.5 65.6 79.9 66.6 81.6 68.4 83.4 70.1 84.4 72.5 84.4 75ZM75 59.4C72.5 59.4 70.1 58.4 68.4 56.6 66.6 54.9 65.6 52.5 65.6 50 65.6 47.5 66.6 45.1 68.4 43.4 70.1 41.6 72.5 40.6 75 40.6 77.5 40.6 79.9 41.6 81.6 43.4 83.4 45.1 84.4 47.5 84.4 50 84.4 52.5 83.4 54.9 81.6 56.6 79.9 58.4 77.5 59.4 75 59.4ZM34.4 75C34.4 77.5 33.4 79.9 31.6 81.6 29.9 83.4 27.5 84.4 25 84.4 22.5 84.4 20.1 83.4 18.4 81.6 16.6 79.9 15.6 77.5 15.6 75 15.6 72.5 16.6 70.1 18.4 68.4 20.1 66.6 22.5 65.6 25 65.6 27.5 65.6 29.9 66.6 31.6 68.4 33.4 70.1 34.4 72.5 34.4 75ZM25 59.4C22.5 59.4 20.1 58.4 18.4 56.6 16.6 54.9 15.6 52.5 15.6 50 15.6 47.5 16.6 45.1 18.4 43.4 20.1 41.6 22.5 40.6 25 40.6 27.5 40.6 29.9 41.6 31.6 43.4 33.4 45.1 34.4 47.5 34.4 50 34.4 52.5 33.4 54.9 31.6 56.6 29.9 58.4 27.5 59.4 25 59.4Z"
    fill="#f50057"
  ></path>
  <path
    d="M118.8 0C113.8 0 109 2 105.5 5.5 102 9 100 13.8 100 18.8V81.3C100 86.2 102 91 105.5 94.5 109 98 113.8 100 118.8 100H181.3C186.2 100 191 98 194.5 94.5 198 91 200 86.2 200 81.3V18.8C200 13.8 198 9 194.5 5.5 191 2 186.2 0 181.3 0L118.8 0ZM134.4 25C134.4 27.5 133.4 29.9 131.6 31.6 129.9 33.4 127.5 34.4 125 34.4 122.5 34.4 120.1 33.4 118.4 31.6 116.6 29.9 115.6 27.5 115.6 25 115.6 22.5 116.6 20.1 118.4 18.4 120.1 16.6 122.5 15.6 125 15.6 127.5 15.6 129.9 16.6 131.6 18.4 133.4 20.1 134.4 22.5 134.4 25V25ZM184.4 25C184.4 27.5 183.4 29.9 181.6 31.6 179.9 33.4 177.5 34.4 175 34.4 172.5 34.4 170.1 33.4 168.4 31.6 166.6 29.9 165.6 27.5 165.6 25 165.6 22.5 166.6 20.1 168.4 18.4 170.1 16.6 172.5 15.6 175 15.6 177.5 15.6 179.9 16.6 181.6 18.4 183.4 20.1 184.4 22.5 184.4 25V25ZM175 84.4C172.5 84.4 170.1 83.4 168.4 81.6 166.6 79.9 165.6 77.5 165.6 75 165.6 72.5 166.6 70.1 168.4 68.4 170.1 66.6 172.5 65.6 175 65.6 177.5 65.6 179.9 66.6 181.6 68.4 183.4 70.1 184.4 72.5 184.4 75 184.4 77.5 183.4 79.9 181.6 81.6 179.9 83.4 177.5 84.4 175 84.4ZM134.4 75C134.4 77.5 133.4 79.9 131.6 81.6 129.9 83.4 127.5 84.4 125 84.4 122.5 84.4 120.1 83.4 118.4 81.6 116.6 79.9 115.6 77.5 115.6 75 115.6 72.5 116.6 70.1 118.4 68.4 120.1 66.6 122.5 65.6 125 65.6 127.5 65.6 129.9 66.6 131.6 68.4 133.4 70.1 134.4 72.5 134.4 75ZM150 59.4C147.5 59.4 145.1 58.4 143.4 56.6 141.6 54.9 140.6 52.5 140.6 50 140.6 47.5 141.6 45.1 143.4 43.4 145.1 41.6 147.5 40.6 150 40.6 152.5 40.6 154.9 41.6 156.6 43.4 158.4 45.1 159.4 47.5 159.4 50 159.4 52.5 158.4 54.9 156.6 56.6 154.9 58.4 152.5 59.4 150 59.4Z"
    fill="#f50057"
  ></path>
  <path
    d="M218.8 0C213.8 0 209 2 205.5 5.5 202 9 200 13.8 200 18.8V81.3C200 86.2 202 91 205.5 94.5 209 98 213.8 100 218.8 100H281.3C286.2 100 291 98 294.5 94.5 298 91 300 86.2 300 81.3V18.8C300 13.8 298 9 294.5 5.5 291 2 286.2 0 281.3 0L218.8 0ZM225 34.4C222.5 34.4 220.1 33.4 218.4 31.6 216.6 29.9 215.6 27.5 215.6 25 215.6 22.5 216.6 20.1 218.4 18.4 220.1 16.6 222.5 15.6 225 15.6 227.5 15.6 229.9 16.6 231.6 18.4 233.4 20.1 234.4 22.5 234.4 25 234.4 27.5 233.4 29.9 231.6 31.6 229.9 33.4 227.5 34.4 225 34.4ZM275 34.4C272.5 34.4 270.1 33.4 268.4 31.6 266.6 29.9 265.6 27.5 265.6 25 265.6 22.5 266.6 20.1 268.4 18.4 270.1 16.6 272.5 15.6 275 15.6 277.5 15.6 279.9 16.6 281.6 18.4 283.4 20.1 284.4 22.5 284.4 25 284.4 27.5 283.4 29.9 281.6 31.6 279.9 33.4 277.5 34.4 275 34.4ZM284.4 75C284.4 77.5 283.4 79.9 281.6 81.6 279.9 83.4 277.5 84.4 275 84.4 272.5 84.4 270.1 83.4 268.4 81.6 266.6 79.9 265.6 77.5 265.6 75 265.6 72.5 266.6 70.1 268.4 68.4 270.1 66.6 272.5 65.6 275 65.6 277.5 65.6 279.9 66.6 281.6 68.4 283.4 70.1 284.4 72.5 284.4 75ZM225 84.4C222.5 84.4 220.1 83.4 218.4 81.6 216.6 79.9 215.6 77.5 215.6 75 215.6 72.5 216.6 70.1 218.4 68.4 220.1 66.6 222.5 65.6 225 65.6 227.5 65.6 229.9 66.6 231.6 68.4 233.4 70.1 234.4 72.5 234.4 75 234.4 77.5 233.4 79.9 231.6 81.6 229.9 83.4 227.5 84.4 225 84.4Z"
    fill="#f50057"
  ></path>
  <path
    d="M318.8 0C313.8 0 309 2 305.5 5.5 302 9 300 13.8 300 18.8V81.3C300 86.2 302 91 305.5 94.5 309 98 313.8 100 318.8 100H381.3C386.2 100 391 98 394.5 94.5 398 91 400 86.2 400 81.3V18.8C400 13.8 398 9 394.5 5.5 391 2 386.2 0 381.3 0L318.8 0ZM334.4 25C334.4 27.5 333.4 29.9 331.6 31.6 329.9 33.4 327.5 34.4 325 34.4 322.5 34.4 320.1 33.4 318.4 31.6 316.6 29.9 315.6 27.5 315.6 25 315.6 22.5 316.6 20.1 318.4 18.4 320.1 16.6 322.5 15.6 325 15.6 327.5 15.6 329.9 16.6 331.6 18.4 333.4 20.1 334.4 22.5 334.4 25V25ZM384.4 75C384.4 77.5 383.4 79.9 381.6 81.6 379.9 83.4 377.5 84.4 375 84.4 372.5 84.4 370.1 83.4 368.4 81.6 366.6 79.9 365.6 77.5 365.6 75 365.6 72.5 366.6 70.1 368.4 68.4 370.1 66.6 372.5 65.6 375 65.6 377.5 65.6 379.9 66.6 381.6 68.4 383.4 70.1 384.4 72.5 384.4 75ZM350 59.4C347.5 59.4 345.1 58.4 343.4 56.6 341.6 54.9 340.6 52.5 340.6 50 340.6 47.5 341.6 45.1 343.4 43.4 345.1 41.6 347.5 40.6 350 40.6 352.5 40.6 354.9 41.6 356.6 43.4 358.4 45.1 359.4 47.5 359.4 50 359.4 52.5 358.4 54.9 356.6 56.6 354.9 58.4 352.5 59.4 350 59.4Z"
    fill="#f50057"
  ></path>
  <path
    d="M400 18.8C400 13.8 402 9 405.5 5.5 409 2 413.8 0 418.8 0L481.3 0C486.2 0 491 2 494.5 5.5 498 9 500 13.8 500 18.8V81.3C500 86.2 498 91 494.5 94.5 491 98 486.2 100 481.3 100H418.8C413.8 100 409 98 405.5 94.5 402 91 400 86.2 400 81.3V18.8ZM434.4 25C434.4 22.5 433.4 20.1 431.6 18.4 429.9 16.6 427.5 15.6 425 15.6 422.5 15.6 420.1 16.6 418.4 18.4 416.6 20.1 415.6 22.5 415.6 25 415.6 27.5 416.6 29.9 418.4 31.6 420.1 33.4 422.5 34.4 425 34.4 427.5 34.4 429.9 33.4 431.6 31.6 433.4 29.9 434.4 27.5 434.4 25ZM475 84.4C477.5 84.4 479.9 83.4 481.6 81.6 483.4 79.9 484.4 77.5 484.4 75 484.4 72.5 483.4 70.1 481.6 68.4 479.9 66.6 477.5 65.6 475 65.6 472.5 65.6 470.1 66.6 468.4 68.4 466.6 70.1 465.6 72.5 465.6 75 465.6 77.5 466.6 79.9 468.4 81.6 470.1 83.4 472.5 84.4 475 84.4Z"
    fill="#f50057"
  ></path>
  <path
    d="M518.8 0C513.8 0 509 2 505.5 5.5 502 9 500 13.8 500 18.8V81.3C500 86.2 502 91 505.5 94.5 509 98 513.8 100 518.8 100H581.3C586.2 100 591 98 594.5 94.5 598 91 600 86.2 600 81.3V18.8C600 13.8 598 9 594.5 5.5 591 2 586.2 0 581.3 0L518.8 0ZM550 59.4C547.5 59.4 545.1 58.4 543.4 56.6 541.6 54.9 540.6 52.5 540.6 50 540.6 47.5 541.6 45.1 543.4 43.4 545.1 41.6 547.5 40.6 550 40.6 552.5 40.6 554.9 41.6 556.6 43.4 558.4 45.1 559.4 47.5 559.4 50 559.4 52.5 558.4 54.9 556.6 56.6 554.9 58.4 552.5 59.4 550 59.4Z"
    fill="#f50057"
  ></path>
</svg>
