<svg width="120" height="20" viewBox="0 0 120 20" fill="none" xmlns="http://www.w3.org/2000/svg">
<path d="M3.76 0C2.76 0 1.8 0.4 1.1 1.1C0.4 1.8 0 2.76 0 3.76V16.26C0 17.24 0.4 18.2 1.1 18.9C1.8 19.6 2.76 20 3.76 20H16.26C17.24 20 18.2 19.6 18.9 18.9C19.6 18.2 20 17.24 20 16.26V3.76C20 2.76 19.6 1.8 18.9 1.1C18.2 0.4 17.24 0 16.26 0H3.76ZM5 6.88C4.5 6.88 4.02 6.68 3.68 6.32C3.32 5.98 3.12 5.5 3.12 5C3.12 4.5 3.32 4.02 3.68 3.68C4.02 3.32 4.5 3.12 5 3.12C5.5 3.12 5.98 3.32 6.32 3.68C6.68 4.02 6.88 4.5 6.88 5C6.88 5.5 6.68 5.98 6.32 6.32C5.98 6.68 5.5 6.88 5 6.88ZM15 6.88C14.5 6.88 14.02 6.68 13.68 6.32C13.32 5.98 13.12 5.5 13.12 5C13.12 4.5 13.32 4.02 13.68 3.68C14.02 3.32 14.5 3.12 15 3.12C15.5 3.12 15.98 3.32 16.32 3.68C16.68 4.02 16.88 4.5 16.88 5C16.88 5.5 16.68 5.98 16.32 6.32C15.98 6.68 15.5 6.88 15 6.88ZM16.88 15C16.88 15.5 16.68 15.98 16.32 16.32C15.98 16.68 15.5 16.88 15 16.88C14.5 16.88 14.02 16.68 13.68 16.32C13.32 15.98 13.12 15.5 13.12 15C13.12 14.5 13.32 14.02 13.68 13.68C14.02 13.32 14.5 13.12 15 13.12C15.5 13.12 15.98 13.32 16.32 13.68C16.68 14.02 16.88 14.5 16.88 15ZM15 11.88C14.5 11.88 14.02 11.68 13.68 11.32C13.32 10.98 13.12 10.5 13.12 10C13.12 9.5 13.32 9.02 13.68 8.68C14.02 8.32 14.5 8.12 15 8.12C15.5 8.12 15.98 8.32 16.32 8.68C16.68 9.02 16.88 9.5 16.88 10C16.88 10.5 16.68 10.98 16.32 11.32C15.98 11.68 15.5 11.88 15 11.88ZM6.88 15C6.88 15.5 6.68 15.98 6.32 16.32C5.98 16.68 5.5 16.88 5 16.88C4.5 16.88 4.02 16.68 3.68 16.32C3.32 15.98 3.12 15.5 3.12 15C3.12 14.5 3.32 14.02 3.68 13.68C4.02 13.32 4.5 13.12 5 13.12C5.5 13.12 5.98 13.32 6.32 13.68C6.68 14.02 6.88 14.5 6.88 15ZM5 11.88C4.5 11.88 4.02 11.68 3.68 11.32C3.32 10.98 3.12 10.5 3.12 10C3.12 9.5 3.32 9.02 3.68 8.68C4.02 8.32 4.5 8.12 5 8.12C5.5 8.12 5.98 8.32 6.32 8.68C6.68 9.02 6.88 9.5 6.88 10C6.88 10.5 6.68 10.98 6.32 11.32C5.98 11.68 5.5 11.88 5 11.88Z" fill="white"/>
<path d="M23.76 0C22.76 0 21.8 0.4 21.1 1.1C20.4 1.8 20 2.76 20 3.76V16.26C20 17.24 20.4 18.2 21.1 18.9C21.8 19.6 22.76 20 23.76 20H36.26C37.24 20 38.2 19.6 38.9 18.9C39.6 18.2 40 17.24 40 16.26V3.76C40 2.76 39.6 1.8 38.9 1.1C38.2 0.4 37.24 0 36.26 0H23.76ZM26.88 5C26.88 5.5 26.68 5.98 26.32 6.32C25.98 6.68 25.5 6.88 25 6.88C24.5 6.88 24.02 6.68 23.68 6.32C23.32 5.98 23.12 5.5 23.12 5C23.12 4.5 23.32 4.02 23.68 3.68C24.02 3.32 24.5 3.12 25 3.12C25.5 3.12 25.98 3.32 26.32 3.68C26.68 4.02 26.88 4.5 26.88 5ZM36.88 5C36.88 5.5 36.68 5.98 36.32 6.32C35.98 6.68 35.5 6.88 35 6.88C34.5 6.88 34.02 6.68 33.68 6.32C33.32 5.98 33.12 5.5 33.12 5C33.12 4.5 33.32 4.02 33.68 3.68C34.02 3.32 34.5 3.12 35 3.12C35.5 3.12 35.98 3.32 36.32 3.68C36.68 4.02 36.88 4.5 36.88 5ZM35 16.88C34.5 16.88 34.02 16.68 33.68 16.32C33.32 15.98 33.12 15.5 33.12 15C33.12 14.5 33.32 14.02 33.68 13.68C34.02 13.32 34.5 13.12 35 13.12C35.5 13.12 35.98 13.32 36.32 13.68C36.68 14.02 36.88 14.5 36.88 15C36.88 15.5 36.68 15.98 36.32 16.32C35.98 16.68 35.5 16.88 35 16.88ZM26.88 15C26.88 15.5 26.68 15.98 26.32 16.32C25.98 16.68 25.5 16.88 25 16.88C24.5 16.88 24.02 16.68 23.68 16.32C23.32 15.98 23.12 15.5 23.12 15C23.12 14.5 23.32 14.02 23.68 13.68C24.02 13.32 24.5 13.12 25 13.12C25.5 13.12 25.98 13.32 26.32 13.68C26.68 14.02 26.88 14.5 26.88 15ZM30 11.88C29.5 11.88 29.02 11.68 28.68 11.32C28.32 10.98 28.12 10.5 28.12 10C28.12 9.5 28.32 9.02 28.68 8.68C29.02 8.32 29.5 8.12 30 8.12C30.5 8.12 30.98 8.32 31.32 8.68C31.68 9.02 31.88 9.5 31.88 10C31.88 10.5 31.68 10.98 31.32 11.32C30.98 11.68 30.5 11.88 30 11.88Z" fill="white"/>
<path d="M43.76 0C42.76 0 41.8 0.4 41.1 1.1C40.4 1.8 40 2.76 40 3.76V16.26C40 17.24 40.4 18.2 41.1 18.9C41.8 19.6 42.76 20 43.76 20H56.26C57.24 20 58.2 19.6 58.9 18.9C59.6 18.2 60 17.24 60 16.26V3.76C60 2.76 59.6 1.8 58.9 1.1C58.2 0.4 57.24 0 56.26 0H43.76ZM45 6.88C44.5 6.88 44.02 6.68 43.68 6.32C43.32 5.98 43.12 5.5 43.12 5C43.12 4.5 43.32 4.02 43.68 3.68C44.02 3.32 44.5 3.12 45 3.12C45.5 3.12 45.98 3.32 46.32 3.68C46.68 4.02 46.88 4.5 46.88 5C46.88 5.5 46.68 5.98 46.32 6.32C45.98 6.68 45.5 6.88 45 6.88ZM55 6.88C54.5 6.88 54.02 6.68 53.68 6.32C53.32 5.98 53.12 5.5 53.12 5C53.12 4.5 53.32 4.02 53.68 3.68C54.02 3.32 54.5 3.12 55 3.12C55.5 3.12 55.98 3.32 56.32 3.68C56.68 4.02 56.88 4.5 56.88 5C56.88 5.5 56.68 5.98 56.32 6.32C55.98 6.68 55.5 6.88 55 6.88ZM56.88 15C56.88 15.5 56.68 15.98 56.32 16.32C55.98 16.68 55.5 16.88 55 16.88C54.5 16.88 54.02 16.68 53.68 16.32C53.32 15.98 53.12 15.5 53.12 15C53.12 14.5 53.32 14.02 53.68 13.68C54.02 13.32 54.5 13.12 55 13.12C55.5 13.12 55.98 13.32 56.32 13.68C56.68 14.02 56.88 14.5 56.88 15ZM45 16.88C44.5 16.88 44.02 16.68 43.68 16.32C43.32 15.98 43.12 15.5 43.12 15C43.12 14.5 43.32 14.02 43.68 13.68C44.02 13.32 44.5 13.12 45 13.12C45.5 13.12 45.98 13.32 46.32 13.68C46.68 14.02 46.88 14.5 46.88 15C46.88 15.5 46.68 15.98 46.32 16.32C45.98 16.68 45.5 16.88 45 16.88Z" fill="white"/>
<path d="M63.76 0C62.76 0 61.8 0.4 61.1 1.1C60.4 1.8 60 2.76 60 3.76V16.26C60 17.24 60.4 18.2 61.1 18.9C61.8 19.6 62.76 20 63.76 20H76.26C77.24 20 78.2 19.6 78.9 18.9C79.6 18.2 80 17.24 80 16.26V3.76C80 2.76 79.6 1.8 78.9 1.1C78.2 0.4 77.24 0 76.26 0H63.76ZM66.88 5C66.88 5.5 66.68 5.98 66.32 6.32C65.98 6.68 65.5 6.88 65 6.88C64.5 6.88 64.02 6.68 63.68 6.32C63.32 5.98 63.12 5.5 63.12 5C63.12 4.5 63.32 4.02 63.68 3.68C64.02 3.32 64.5 3.12 65 3.12C65.5 3.12 65.98 3.32 66.32 3.68C66.68 4.02 66.88 4.5 66.88 5ZM76.88 15C76.88 15.5 76.68 15.98 76.32 16.32C75.98 16.68 75.5 16.88 75 16.88C74.5 16.88 74.02 16.68 73.68 16.32C73.32 15.98 73.12 15.5 73.12 15C73.12 14.5 73.32 14.02 73.68 13.68C74.02 13.32 74.5 13.12 75 13.12C75.5 13.12 75.98 13.32 76.32 13.68C76.68 14.02 76.88 14.5 76.88 15ZM70 11.88C69.5 11.88 69.02 11.68 68.68 11.32C68.32 10.98 68.12 10.5 68.12 10C68.12 9.5 68.32 9.02 68.68 8.68C69.02 8.32 69.5 8.12 70 8.12C70.5 8.12 70.98 8.32 71.32 8.68C71.68 9.02 71.88 9.5 71.88 10C71.88 10.5 71.68 10.98 71.32 11.32C70.98 11.68 70.5 11.88 70 11.88Z" fill="white"/>
<path d="M80 3.76C80 2.76 80.4 1.8 81.1 1.1C81.8 0.4 82.76 0 83.76 0H96.26C97.24 0 98.2 0.4 98.9 1.1C99.6 1.8 100 2.76 100 3.76V16.26C100 17.24 99.6 18.2 98.9 18.9C98.2 19.6 97.24 20 96.26 20H83.76C82.76 20 81.8 19.6 81.1 18.9C80.4 18.2 80 17.24 80 16.26V3.76ZM86.88 5C86.88 4.5 86.68 4.02 86.32 3.68C85.98 3.32 85.5 3.12 85 3.12C84.5 3.12 84.02 3.32 83.68 3.68C83.32 4.02 83.12 4.5 83.12 5C83.12 5.5 83.32 5.98 83.68 6.32C84.02 6.68 84.5 6.88 85 6.88C85.5 6.88 85.98 6.68 86.32 6.32C86.68 5.98 86.88 5.5 86.88 5ZM95 16.88C95.5 16.88 95.98 16.68 96.32 16.32C96.68 15.98 96.88 15.5 96.88 15C96.88 14.5 96.68 14.02 96.32 13.68C95.98 13.32 95.5 13.12 95 13.12C94.5 13.12 94.02 13.32 93.68 13.68C93.32 14.02 93.12 14.5 93.12 15C93.12 15.5 93.32 15.98 93.68 16.32C94.02 16.68 94.5 16.88 95 16.88Z" fill="white"/>
<path d="M103.76 0C102.76 0 101.8 0.4 101.1 1.1C100.4 1.8 100 2.76 100 3.76V16.26C100 17.24 100.4 18.2 101.1 18.9C101.8 19.6 102.76 20 103.76 20H116.26C117.24 20 118.2 19.6 118.9 18.9C119.6 18.2 120 17.24 120 16.26V3.76C120 2.76 119.6 1.8 118.9 1.1C118.2 0.4 117.24 0 116.26 0H103.76ZM110 11.88C109.5 11.88 109.02 11.68 108.68 11.32C108.32 10.98 108.12 10.5 108.12 10C108.12 9.5 108.32 9.02 108.68 8.68C109.02 8.32 109.5 8.12 110 8.12C110.5 8.12 110.98 8.32 111.32 8.68C111.68 9.02 111.88 9.5 111.88 10C111.88 10.5 111.68 10.98 111.32 11.32C110.98 11.68 110.5 11.88 110 11.88Z" fill="white"/>
</svg>
