<svg width="96" height="16" viewBox="0 0 96 16" fill="none" xmlns="http://www.w3.org/2000/svg">
<path d="M3.008 0C2.208 0 1.44 0.32 0.88 0.88C0.32 1.44 0 2.208 0 3.008V13.008C0 13.792 0.32 14.56 0.88 15.12C1.44 15.68 2.208 16 3.008 16H13.008C13.792 16 14.56 15.68 15.12 15.12C15.68 14.56 16 13.792 16 13.008V3.008C16 2.208 15.68 1.44 15.12 0.88C14.56 0.32 13.792 0 13.008 0H3.008ZM4 5.504C3.6 5.504 3.216 5.344 2.944 5.056C2.656 4.784 2.496 4.4 2.496 4C2.496 3.6 2.656 3.216 2.944 2.944C3.216 2.656 3.6 2.496 4 2.496C4.4 2.496 4.784 2.656 5.056 2.944C5.344 3.216 5.504 3.6 5.504 4C5.504 4.4 5.344 4.784 5.056 5.056C4.784 5.344 4.4 5.504 4 5.504ZM12 5.504C11.6 5.504 11.216 5.344 10.944 5.056C10.656 4.784 10.496 4.4 10.496 4C10.496 3.6 10.656 3.216 10.944 2.944C11.216 2.656 11.6 2.496 12 2.496C12.4 2.496 12.784 2.656 13.056 2.944C13.344 3.216 13.504 3.6 13.504 4C13.504 4.4 13.344 4.784 13.056 5.056C12.784 5.344 12.4 5.504 12 5.504ZM13.504 12C13.504 12.4 13.344 12.784 13.056 13.056C12.784 13.344 12.4 13.504 12 13.504C11.6 13.504 11.216 13.344 10.944 13.056C10.656 12.784 10.496 12.4 10.496 12C10.496 11.6 10.656 11.216 10.944 10.944C11.216 10.656 11.6 10.496 12 10.496C12.4 10.496 12.784 10.656 13.056 10.944C13.344 11.216 13.504 11.6 13.504 12ZM12 9.504C11.6 9.504 11.216 9.344 10.944 9.056C10.656 8.784 10.496 8.4 10.496 8C10.496 7.6 10.656 7.216 10.944 6.944C11.216 6.656 11.6 6.496 12 6.496C12.4 6.496 12.784 6.656 13.056 6.944C13.344 7.216 13.504 7.6 13.504 8C13.504 8.4 13.344 8.784 13.056 9.056C12.784 9.344 12.4 9.504 12 9.504ZM5.504 12C5.504 12.4 5.344 12.784 5.056 13.056C4.784 13.344 4.4 13.504 4 13.504C3.6 13.504 3.216 13.344 2.944 13.056C2.656 12.784 2.496 12.4 2.496 12C2.496 11.6 2.656 11.216 2.944 10.944C3.216 10.656 3.6 10.496 4 10.496C4.4 10.496 4.784 10.656 5.056 10.944C5.344 11.216 5.504 11.6 5.504 12ZM4 9.504C3.6 9.504 3.216 9.344 2.944 9.056C2.656 8.784 2.496 8.4 2.496 8C2.496 7.6 2.656 7.216 2.944 6.944C3.216 6.656 3.6 6.496 4 6.496C4.4 6.496 4.784 6.656 5.056 6.944C5.344 7.216 5.504 7.6 5.504 8C5.504 8.4 5.344 8.784 5.056 9.056C4.784 9.344 4.4 9.504 4 9.504Z" fill="white"/>
<path d="M19.008 0C18.208 0 17.44 0.32 16.88 0.88C16.32 1.44 16 2.208 16 3.008V13.008C16 13.792 16.32 14.56 16.88 15.12C17.44 15.68 18.208 16 19.008 16H29.008C29.792 16 30.56 15.68 31.12 15.12C31.68 14.56 32 13.792 32 13.008V3.008C32 2.208 31.68 1.44 31.12 0.88C30.56 0.32 29.792 0 29.008 0H19.008ZM21.504 4C21.504 4.4 21.344 4.784 21.056 5.056C20.784 5.344 20.4 5.504 20 5.504C19.6 5.504 19.216 5.344 18.944 5.056C18.656 4.784 18.496 4.4 18.496 4C18.496 3.6 18.656 3.216 18.944 2.944C19.216 2.656 19.6 2.496 20 2.496C20.4 2.496 20.784 2.656 21.056 2.944C21.344 3.216 21.504 3.6 21.504 4ZM29.504 4C29.504 4.4 29.344 4.784 29.056 5.056C28.784 5.344 28.4 5.504 28 5.504C27.6 5.504 27.216 5.344 26.944 5.056C26.656 4.784 26.496 4.4 26.496 4C26.496 3.6 26.656 3.216 26.944 2.944C27.216 2.656 27.6 2.496 28 2.496C28.4 2.496 28.784 2.656 29.056 2.944C29.344 3.216 29.504 3.6 29.504 4ZM28 13.504C27.6 13.504 27.216 13.344 26.944 13.056C26.656 12.784 26.496 12.4 26.496 12C26.496 11.6 26.656 11.216 26.944 10.944C27.216 10.656 27.6 10.496 28 10.496C28.4 10.496 28.784 10.656 29.056 10.944C29.344 11.216 29.504 11.6 29.504 12C29.504 12.4 29.344 12.784 29.056 13.056C28.784 13.344 28.4 13.504 28 13.504ZM21.504 12C21.504 12.4 21.344 12.784 21.056 13.056C20.784 13.344 20.4 13.504 20 13.504C19.6 13.504 19.216 13.344 18.944 13.056C18.656 12.784 18.496 12.4 18.496 12C18.496 11.6 18.656 11.216 18.944 10.944C19.216 10.656 19.6 10.496 20 10.496C20.4 10.496 20.784 10.656 21.056 10.944C21.344 11.216 21.504 11.6 21.504 12ZM24 9.504C23.6 9.504 23.216 9.344 22.944 9.056C22.656 8.784 22.496 8.4 22.496 8C22.496 7.6 22.656 7.216 22.944 6.944C23.216 6.656 23.6 6.496 24 6.496C24.4 6.496 24.784 6.656 25.056 6.944C25.344 7.216 25.504 7.6 25.504 8C25.504 8.4 25.344 8.784 25.056 9.056C24.784 9.344 24.4 9.504 24 9.504Z" fill="white"/>
<path d="M35.008 0C34.208 0 33.44 0.32 32.88 0.88C32.32 1.44 32 2.208 32 3.008V13.008C32 13.792 32.32 14.56 32.88 15.12C33.44 15.68 34.208 16 35.008 16H45.008C45.792 16 46.56 15.68 47.12 15.12C47.68 14.56 48 13.792 48 13.008V3.008C48 2.208 47.68 1.44 47.12 0.88C46.56 0.32 45.792 0 45.008 0H35.008ZM36 5.504C35.6 5.504 35.216 5.344 34.944 5.056C34.656 4.784 34.496 4.4 34.496 4C34.496 3.6 34.656 3.216 34.944 2.944C35.216 2.656 35.6 2.496 36 2.496C36.4 2.496 36.784 2.656 37.056 2.944C37.344 3.216 37.504 3.6 37.504 4C37.504 4.4 37.344 4.784 37.056 5.056C36.784 5.344 36.4 5.504 36 5.504ZM44 5.504C43.6 5.504 43.216 5.344 42.944 5.056C42.656 4.784 42.496 4.4 42.496 4C42.496 3.6 42.656 3.216 42.944 2.944C43.216 2.656 43.6 2.496 44 2.496C44.4 2.496 44.784 2.656 45.056 2.944C45.344 3.216 45.504 3.6 45.504 4C45.504 4.4 45.344 4.784 45.056 5.056C44.784 5.344 44.4 5.504 44 5.504ZM45.504 12C45.504 12.4 45.344 12.784 45.056 13.056C44.784 13.344 44.4 13.504 44 13.504C43.6 13.504 43.216 13.344 42.944 13.056C42.656 12.784 42.496 12.4 42.496 12C42.496 11.6 42.656 11.216 42.944 10.944C43.216 10.656 43.6 10.496 44 10.496C44.4 10.496 44.784 10.656 45.056 10.944C45.344 11.216 45.504 11.6 45.504 12ZM36 13.504C35.6 13.504 35.216 13.344 34.944 13.056C34.656 12.784 34.496 12.4 34.496 12C34.496 11.6 34.656 11.216 34.944 10.944C35.216 10.656 35.6 10.496 36 10.496C36.4 10.496 36.784 10.656 37.056 10.944C37.344 11.216 37.504 11.6 37.504 12C37.504 12.4 37.344 12.784 37.056 13.056C36.784 13.344 36.4 13.504 36 13.504Z" fill="white"/>
<path d="M51.008 0C50.208 0 49.44 0.32 48.88 0.88C48.32 1.44 48 2.208 48 3.008V13.008C48 13.792 48.32 14.56 48.88 15.12C49.44 15.68 50.208 16 51.008 16H61.008C61.792 16 62.56 15.68 63.12 15.12C63.68 14.56 64 13.792 64 13.008V3.008C64 2.208 63.68 1.44 63.12 0.88C62.56 0.32 61.792 0 61.008 0H51.008ZM53.504 4C53.504 4.4 53.344 4.784 53.056 5.056C52.784 5.344 52.4 5.504 52 5.504C51.6 5.504 51.216 5.344 50.944 5.056C50.656 4.784 50.496 4.4 50.496 4C50.496 3.6 50.656 3.216 50.944 2.944C51.216 2.656 51.6 2.496 52 2.496C52.4 2.496 52.784 2.656 53.056 2.944C53.344 3.216 53.504 3.6 53.504 4ZM61.504 12C61.504 12.4 61.344 12.784 61.056 13.056C60.784 13.344 60.4 13.504 60 13.504C59.6 13.504 59.216 13.344 58.944 13.056C58.656 12.784 58.496 12.4 58.496 12C58.496 11.6 58.656 11.216 58.944 10.944C59.216 10.656 59.6 10.496 60 10.496C60.4 10.496 60.784 10.656 61.056 10.944C61.344 11.216 61.504 11.6 61.504 12ZM56 9.504C55.6 9.504 55.216 9.344 54.944 9.056C54.656 8.784 54.496 8.4 54.496 8C54.496 7.6 54.656 7.216 54.944 6.944C55.216 6.656 55.6 6.496 56 6.496C56.4 6.496 56.784 6.656 57.056 6.944C57.344 7.216 57.504 7.6 57.504 8C57.504 8.4 57.344 8.784 57.056 9.056C56.784 9.344 56.4 9.504 56 9.504Z" fill="white"/>
<path d="M64 3.008C64 2.208 64.32 1.44 64.88 0.88C65.44 0.32 66.208 0 67.008 0H77.008C77.792 0 78.56 0.32 79.12 0.88C79.68 1.44 80 2.208 80 3.008V13.008C80 13.792 79.68 14.56 79.12 15.12C78.56 15.68 77.792 16 77.008 16H67.008C66.208 16 65.44 15.68 64.88 15.12C64.32 14.56 64 13.792 64 13.008V3.008ZM69.504 4C69.504 3.6 69.344 3.216 69.056 2.944C68.784 2.656 68.4 2.496 68 2.496C67.6 2.496 67.216 2.656 66.944 2.944C66.656 3.216 66.496 3.6 66.496 4C66.496 4.4 66.656 4.784 66.944 5.056C67.216 5.344 67.6 5.504 68 5.504C68.4 5.504 68.784 5.344 69.056 5.056C69.344 4.784 69.504 4.4 69.504 4ZM76 13.504C76.4 13.504 76.784 13.344 77.056 13.056C77.344 12.784 77.504 12.4 77.504 12C77.504 11.6 77.344 11.216 77.056 10.944C76.784 10.656 76.4 10.496 76 10.496C75.6 10.496 75.216 10.656 74.944 10.944C74.656 11.216 74.496 11.6 74.496 12C74.496 12.4 74.656 12.784 74.944 13.056C75.216 13.344 75.6 13.504 76 13.504Z" fill="white"/>
<path d="M83.008 0C82.208 0 81.44 0.32 80.88 0.88C80.32 1.44 80 2.208 80 3.008V13.008C80 13.792 80.32 14.56 80.88 15.12C81.44 15.68 82.208 16 83.008 16H93.008C93.792 16 94.56 15.68 95.12 15.12C95.68 14.56 96 13.792 96 13.008V3.008C96 2.208 95.68 1.44 95.12 0.88C94.56 0.32 93.792 0 93.008 0H83.008ZM88 9.504C87.6 9.504 87.216 9.344 86.944 9.056C86.656 8.784 86.496 8.4 86.496 8C86.496 7.6 86.656 7.216 86.944 6.944C87.216 6.656 87.6 6.496 88 6.496C88.4 6.496 88.784 6.656 89.056 6.944C89.344 7.216 89.504 7.6 89.504 8C89.504 8.4 89.344 8.784 89.056 9.056C88.784 9.344 88.4 9.504 88 9.504Z" fill="white"/>
</svg>
