<svg xmlns="http://www.w3.org/2000/svg" width="168" height="181">
  <path
    d="M 88 0.5 C 53.9 0.5 24.9 11.2 13.4 26.2 L 65.9 78.7 C 73 79.8 80.2 80.5 88 80.5 C 132.2 80.5 168 62.6 168 40.5 C 168 18.4 132.2 0.5 88 0.5"
    fill="#1a237e"
  ></path>
  <path
    d="M 168 60.5 C 168 82.6 132.2 100.5 88 100.5 C 81.4 100.5 75 100 68.9 99.2 L 44.2 123.9 C 56.8 128 71.8 130.5 88 130.5 C 132.2 130.5 168 112.6 168 90.5"
    fill="#1a237e"
  ></path>
  <path
    d="M 168 110.5 C 168 132.6 132.2 150.5 88 150.5 C 65.2 150.5 44.7 145.5 30.1 138 L 13.3 154.8 C 24.8 169.8 53.9 180.5 88 180.5 C 132.2 180.5 168 162.6 168 140.5"
    fill="#1a237e"
  ></path>
  <path
    d="M 14.2 41 L 0 55.2 L 35 90.2 L 0 125.2 L 14.2 139.4 L 63.4 90.2"
    fill="#009600"
  ></path>
</svg>
